<svg width="33" height="32" viewBox="0 0 33 32" fill="none" xmlns="http://www.w3.org/2000/svg">
<path id="Vector" d="M11.2521 8.59835C5.08404 13.5328 4.46723 20.3177 9.40169 28.953M22.3547 23.4017C28.5227 18.4673 29.1395 11.8152 24.2051 3.17989M16.8034 1.19666C12.8773 1.19666 9.11198 2.75629 6.33581 5.53247C3.55964 8.30864 2 12.0739 2 16C2 19.9261 3.55964 23.6914 6.33581 26.4676C9.11198 29.2438 12.8773 30.8034 16.8034 30.8034C20.7295 30.8034 24.4948 29.2438 27.271 26.4676C30.0471 23.6914 31.6068 19.9261 31.6068 16C31.6068 12.0739 30.0471 8.30864 27.271 5.53247C24.4948 2.75629 20.7295 1.19666 16.8034 1.19666ZM16.8034 6.74792C14.3496 6.74792 11.9963 7.7227 10.2612 9.45781C8.52604 11.1929 7.55127 13.5462 7.55127 16C7.55127 18.4539 8.52604 20.8072 10.2612 22.5423C11.9963 24.2774 14.3496 25.2522 16.8034 25.2522C19.2572 25.2522 21.6105 24.2774 23.3456 22.5423C25.0807 20.8072 26.0555 18.4539 26.0555 16C26.0555 13.5462 25.0807 11.1929 23.3456 9.45781C21.6105 7.7227 19.2572 6.74792 16.8034 6.74792Z" stroke="#EBEBEB" stroke-width="2.26677" stroke-linejoin="round"/>
</svg>
